<svg width="21" height="20" viewBox="0 0 21 20" fill="none" xmlns="http://www.w3.org/2000/svg">
<path d="M10.702 20C16.5892 20 20.5 15.9493 20.5 10.232C20.5 9.57733 20.4306 9.072 20.334 8.568H10.7034V12.0053H16.494C16.2573 13.4653 14.7406 16.316 10.7034 16.316C7.22516 16.316 4.38492 13.492 4.38492 10C4.38492 6.508 7.2238 3.68267 10.7034 3.68267C12.6934 3.68267 14.0156 4.51467 14.7678 5.224L17.5373 2.61867C15.754 0.982667 13.4579 0 10.702 0C5.06505 0 0.5 4.47467 0.5 10C0.5 15.5253 5.06505 20 10.702 20Z" fill="#DD4B39"/>
</svg>
