<svg width="90" height="146" viewBox="0 0 90 146" fill="none" xmlns="http://www.w3.org/2000/svg">
<g clip-path="url(#clip0)">
<path d="M44.2281 77.0138C51.278 77.0138 56.9931 71.2743 56.9931 64.1943C56.9931 57.1143 51.278 51.3749 44.2281 51.3749C37.1782 51.3749 31.4632 57.1143 31.4632 64.1943C31.4632 71.2743 37.1782 77.0138 44.2281 77.0138Z" fill="#0BDBB6"/>
<path d="M13.1824 95.3878C12.912 95.2577 12.6814 95.0568 12.5149 94.8063C12.3483 94.5558 12.252 94.265 12.236 93.9642L12.0503 90.4339C12.0274 89.9899 12.1808 89.555 12.4768 89.2245C12.7729 88.894 13.1874 88.6949 13.6294 88.671L42.9288 87.1166C43.3709 87.0936 43.804 87.2477 44.133 87.545C44.4621 87.8423 44.6603 88.2585 44.6842 88.7024L44.8699 92.2329C44.8927 92.6768 44.7393 93.1117 44.4433 93.4422C44.1472 93.7727 43.7327 93.9717 43.2908 93.9957L13.9913 95.5502C13.7124 95.5653 13.4342 95.5095 13.1824 95.3878Z" fill="#0BDBB6"/>
<path d="M33.3801 95.457C33.0951 95.3186 32.8549 95.1019 32.6876 94.8319C32.5202 94.562 32.4325 94.2499 32.4346 93.932L32.3998 87.285C32.4014 87.0647 32.4463 86.8468 32.5317 86.6439C32.6172 86.441 32.7417 86.257 32.898 86.1024C33.0544 85.9479 33.2395 85.8258 33.4429 85.7431C33.6463 85.6605 33.8639 85.6189 34.0832 85.6207L47.4496 86.8041C47.8035 86.8063 48.2501 87.3568 48.6092 87.7987C48.7218 87.9374 48.819 88.0572 48.8902 88.1297C48.9213 88.1615 48.951 88.1945 48.9792 88.2282C49.2346 88.5337 49.3729 88.9208 49.3693 89.3196L49.34 92.8546C49.3358 93.2992 49.1562 93.7239 48.8406 94.0356C48.525 94.3473 48.0992 94.5206 47.6566 94.5174L34.1006 95.6223C33.8512 95.6215 33.6052 95.565 33.3801 95.457Z" fill="#2F2E41"/>
<path d="M41.7398 145.598H38.2195C37.7769 145.597 37.3525 145.421 37.0395 145.106C36.7265 144.792 36.5505 144.366 36.55 143.921V113.977C36.5505 113.532 36.7265 113.106 37.0395 112.791C37.3525 112.477 37.7769 112.3 38.2195 112.3H41.7398C42.1825 112.3 42.6068 112.477 42.9198 112.791C43.2328 113.106 43.4089 113.532 43.4094 113.977V143.921C43.4089 144.366 43.2328 144.792 42.9198 145.106C42.6068 145.421 42.1825 145.597 41.7398 145.598Z" fill="#0BDBB6"/>
<path d="M51.0254 145.598H47.5051C47.0625 145.597 46.6381 145.421 46.3251 145.106C46.0121 144.792 45.836 144.366 45.8355 143.921V113.977C45.836 113.532 46.0121 113.106 46.3251 112.791C46.6381 112.477 47.0625 112.3 47.5051 112.3H51.0254C51.468 112.3 51.8924 112.477 52.2054 112.791C52.5184 113.106 52.6945 113.532 52.695 113.977V143.921C52.6945 144.366 52.5184 144.792 52.2054 145.106C51.8924 145.421 51.468 145.597 51.0254 145.598Z" fill="#0BDBB6"/>
<path d="M45.9274 68.9457L45.9407 68.4666C45.0533 68.4418 44.2709 68.3859 43.683 67.9546C43.5163 67.8253 43.3793 67.6615 43.2813 67.4744C43.1833 67.2872 43.1266 67.081 43.115 66.8699C43.1047 66.7409 43.1241 66.6112 43.1718 66.4909C43.2195 66.3707 43.2942 66.2631 43.39 66.1766C43.7802 65.8456 44.4082 65.9527 44.8659 66.1635L45.2606 66.3452L44.5037 60.7904L44.0311 60.8554L44.6749 65.5805C44.4114 65.4824 44.1276 65.452 43.8493 65.4922C43.5711 65.5324 43.3073 65.6419 43.0821 65.8107C42.9305 65.9436 42.8116 66.1098 42.7346 66.2965C42.6577 66.4832 42.6247 66.6852 42.6383 66.8867C42.6523 67.1704 42.7278 67.4476 42.8597 67.6989C42.9915 67.9502 43.1765 68.1695 43.4016 68.3415C44.157 68.8958 45.1386 68.9234 45.9274 68.9457Z" fill="#2F2E41"/>
<path d="M41.6938 61.2629H39.1247V61.742H41.6938V61.2629Z" fill="#2F2E41"/>
<path d="M49.8032 61.2629H47.234V61.742H49.8032V61.2629Z" fill="#2F2E41"/>
<path d="M58.771 106.887L46.989 83.2916H47.1552C47.5662 83.2911 47.9603 83.1269 48.2509 82.835C48.5416 82.5431 48.705 82.1474 48.7055 81.7346V81.2556C48.705 80.8428 48.5416 80.447 48.2509 80.1551C47.9603 79.8633 47.5662 79.6991 47.1552 79.6986H41.9079C41.4969 79.6991 41.1028 79.8633 40.8122 80.1551C40.5216 80.447 40.3581 80.8428 40.3576 81.2556V81.7346C40.3588 82.1154 40.4992 82.4825 40.7522 82.7662C41.0051 83.0499 41.353 83.2304 41.7298 83.2735L29.9139 106.9C29.3519 108.023 29.0856 109.273 29.1402 110.529C29.1947 111.785 29.5684 113.006 30.2257 114.076C30.883 115.147 31.802 116.03 32.8952 116.643C33.9885 117.256 35.2197 117.577 36.4717 117.577H52.2007C53.4544 117.577 54.6872 117.255 55.7819 116.642C56.8767 116.029 57.7971 115.144 58.4555 114.073C59.1139 113.001 59.4886 111.779 59.5438 110.521C59.599 109.263 59.333 108.012 58.771 106.887Z" fill="#2F2E41"/>
<path d="M44.7795 88.6317L71.3561 76.1475C71.7572 75.9596 72.2162 75.9391 72.6324 76.0907C73.0485 76.2422 73.3878 76.5534 73.5757 76.9559L75.0672 80.1581C75.2543 80.561 75.2747 81.022 75.1238 81.4399C74.9729 81.8578 74.6631 82.1985 74.2623 82.3873L47.6856 94.8715C47.2845 95.0594 46.8255 95.0798 46.4094 94.9283C45.9932 94.7767 45.654 94.4656 45.466 94.0631L43.9746 90.8608C43.8812 90.6616 43.8281 90.4457 43.8184 90.2256C43.8087 90.0056 43.8425 89.7859 43.918 89.5791C43.9769 89.4151 44.0609 89.2613 44.1668 89.1232C44.329 88.9125 44.539 88.744 44.7795 88.6317Z" fill="#0BDBB6"/>
<path d="M43.8681 88.5547L55.5688 81.5505C55.9676 81.3583 56.4261 81.3328 56.8437 81.4796C57.2612 81.6264 57.6038 81.9334 57.7963 82.3334L60.747 88.2869C60.8424 88.4861 60.8977 88.7022 60.9097 88.9228C60.9216 89.1435 60.89 89.3643 60.8166 89.5727C60.7432 89.781 60.6295 89.9727 60.482 90.1367C60.3346 90.3007 60.1563 90.4339 59.9574 90.5284L47.4583 95.3774C47.1309 95.5355 46.4884 95.2395 45.972 95.0017C45.8102 94.9272 45.6703 94.8628 45.5747 94.8292C45.5327 94.8145 45.4916 94.7979 45.4515 94.7802C45.0882 94.6191 44.7941 94.333 44.6223 93.9734L43.0965 90.7875C42.9622 90.5066 42.9083 90.1938 42.9408 89.8839C42.9732 89.5741 43.0908 89.2794 43.2803 89.0327C43.4363 88.8294 43.6377 88.6657 43.8681 88.5547Z" fill="#2F2E41"/>
<path d="M34.1461 57.5267C33.9753 57.5261 33.8117 57.4577 33.691 57.3364C33.5703 57.2151 33.5023 57.0508 33.5019 56.8792C33.5011 56.8283 33.5068 56.7775 33.5188 56.728L36.8552 41.969C36.8805 41.8579 36.9344 41.7553 37.0115 41.6717C37.0886 41.588 37.1863 41.5261 37.2947 41.4923C37.4031 41.4584 37.5184 41.4537 37.6292 41.4787C37.7399 41.5037 37.8423 41.5574 37.9258 41.6346L48.9871 51.9213C49.0703 51.9988 49.1317 52.0969 49.1654 52.2057C49.199 52.3145 49.2036 52.4303 49.1787 52.5415C49.1538 52.6527 49.1003 52.7554 49.0235 52.8393C48.9467 52.9232 48.8493 52.9854 48.7411 53.0196L34.34 57.4975C34.2772 57.5168 34.2118 57.5266 34.1461 57.5267Z" fill="#3F3D56"/>
<path d="M43.1933 46.7375L36.2453 45.3489L36.3546 44.8643L42.4972 46.0907L43.1933 46.7375Z" fill="white"/>
<path d="M48.6644 51.8272L35.38 49.1725L35.4894 48.6855L47.9679 51.1777L48.6644 51.8272Z" fill="white"/>
<path d="M43.9119 54.3646L42.9147 54.6741L34.517 52.9959L34.6263 52.5089L43.9119 54.3646Z" fill="white"/>
<path d="M76.3023 57.7523C77.4603 57.7523 78.399 56.8096 78.399 55.6466C78.399 54.4837 77.4603 53.5409 76.3023 53.5409C75.1443 53.5409 74.2055 54.4837 74.2055 55.6466C74.2055 56.8096 75.1443 57.7523 76.3023 57.7523Z" fill="#0BDBB6"/>
<path d="M49.3442 3.60597C50.1714 3.60597 50.8419 2.93258 50.8419 2.1019C50.8419 1.27123 50.1714 0.597839 49.3442 0.597839C48.5171 0.597839 47.8465 1.27123 47.8465 2.1019C47.8465 2.93258 48.5171 3.60597 49.3442 3.60597Z" fill="#FF6584"/>
<path d="M16.695 50.232C17.5222 50.232 18.1927 49.5586 18.1927 48.7279C18.1927 47.8973 17.5222 47.2239 16.695 47.2239C15.8679 47.2239 15.1974 47.8973 15.1974 48.7279C15.1974 49.5586 15.8679 50.232 16.695 50.232Z" fill="#FF6584"/>
<path d="M69.1135 45.1182C69.9406 45.1182 70.6111 44.4448 70.6111 43.6141C70.6111 42.7834 69.9406 42.11 69.1135 42.11C68.2863 42.11 67.6158 42.7834 67.6158 43.6141C67.6158 44.4448 68.2863 45.1182 69.1135 45.1182Z" fill="#0BDBB6"/>
<path d="M23.5843 65.5735C24.4115 65.5735 25.082 64.9001 25.082 64.0694C25.082 63.2387 24.4115 62.5653 23.5843 62.5653C22.7572 62.5653 22.0867 63.2387 22.0867 64.0694C22.0867 64.9001 22.7572 65.5735 23.5843 65.5735Z" fill="#0BDBB6"/>
<path d="M70.9107 69.7849C71.7378 69.7849 72.4083 69.1115 72.4083 68.2808C72.4083 67.4501 71.7378 66.7767 70.9107 66.7767C70.0835 66.7767 69.413 67.4501 69.413 68.2808C69.413 69.1115 70.0835 69.7849 70.9107 69.7849Z" fill="#E6E6E6"/>
<path d="M57.7312 16.2401C58.5583 16.2401 59.2289 15.5667 59.2289 14.7361C59.2289 13.9054 58.5583 13.232 57.7312 13.232C56.904 13.232 56.2335 13.9054 56.2335 14.7361C56.2335 15.5667 56.904 16.2401 57.7312 16.2401Z" fill="#CCCCCC"/>
<path d="M1.12429 32.7778C2.6925 32.877 4.21498 33.3481 5.56692 34.1523C6.91886 34.9565 8.06178 36.0711 8.90199 37.4046C9.13745 37.7826 9.44483 38.198 9.28183 38.6633C9.22505 38.8417 9.10967 38.9955 8.95457 39.0996C8.79948 39.2036 8.61382 39.2517 8.42797 39.236C8.19624 39.1859 7.98736 39.0607 7.83355 38.8796C7.67974 38.6984 7.58954 38.4715 7.57686 38.2338C7.56418 37.9961 7.62972 37.7608 7.76339 37.5642C7.89705 37.3676 8.0914 37.2207 8.31646 37.146C9.40412 36.6801 10.5015 37.4001 11.3874 37.9748C13.4062 39.2842 15.6266 40.4685 18.0727 40.6177C20.336 40.7557 22.7629 39.8646 24.0218 37.8935C24.242 37.5487 23.6952 37.23 23.4761 37.5731C22.2276 39.5279 19.7037 40.23 17.5092 39.9279C16.2015 39.7206 14.9387 39.2901 13.7756 38.6549C13.1725 38.3405 12.5874 37.992 12.0143 37.6257C11.4689 37.2435 10.8907 36.9107 10.2867 36.6311C9.2794 36.2156 7.94586 36.248 7.24222 37.2048C6.58577 38.0974 7.09309 39.5835 8.19103 39.8344C8.43188 39.8821 8.68076 39.869 8.91534 39.7963C9.14992 39.7237 9.36287 39.5937 9.53511 39.418C9.70735 39.2423 9.8335 39.0265 9.90224 38.7898C9.97097 38.5531 9.98015 38.303 9.92895 38.0619C9.81941 37.5363 9.42528 37.0219 9.12022 36.5922C8.20361 35.2973 7.0094 34.2253 5.62557 33.4553C4.24174 32.6853 2.70353 32.2369 1.12425 32.1431C0.717706 32.1229 0.718766 32.7577 1.12425 32.7778L1.12429 32.7778Z" fill="#CCCCCC"/>
<path d="M89.7 51.991C88.6492 51.3116 87.7736 50.3918 87.1451 49.307C86.5166 48.2222 86.153 47.0032 86.0842 45.75C86.0666 45.3958 86.0135 44.9877 86.3063 44.728C86.4146 44.6262 86.5541 44.5643 86.7019 44.5524C86.8498 44.5405 86.9973 44.5794 87.1203 44.6626C87.2619 44.7876 87.3586 44.9559 87.3955 45.1416C87.4325 45.3273 87.4075 45.52 87.3246 45.69C87.2416 45.86 87.1053 45.9979 86.9366 46.0824C86.7679 46.1669 86.5762 46.1933 86.391 46.1576C85.4558 46.0577 84.9717 45.1305 84.5782 44.3865C83.6816 42.6912 82.5966 41.0044 80.9554 39.9485C79.4368 38.9716 77.4073 38.6458 75.7723 39.5246C75.4862 39.6784 75.743 40.1125 76.0276 39.9595C77.6492 39.0879 79.673 39.5829 81.0805 40.647C81.9087 41.3 82.6195 42.0906 83.1821 42.9845C83.4796 43.4376 83.7514 43.9074 84.0081 44.3849C84.2393 44.8627 84.5124 45.3188 84.824 45.7481C85.3632 46.4289 86.3018 46.9254 87.1598 46.5349C87.351 46.4355 87.5163 46.2926 87.6427 46.1176C87.769 45.9426 87.8529 45.7403 87.8875 45.527C87.9221 45.3136 87.9065 45.0951 87.8419 44.8888C87.7774 44.6826 87.6657 44.4944 87.5158 44.3393C87.367 44.2124 87.1891 44.1246 86.9981 44.0838C86.8071 44.0429 86.6091 44.0503 86.4216 44.1053C86.2342 44.1602 86.0633 44.261 85.9242 44.3986C85.7851 44.5362 85.6822 44.7063 85.6247 44.8937C85.5364 45.3343 85.5345 45.7879 85.6191 46.2292C85.7559 47.4854 86.1715 48.6948 86.8353 49.7682C87.4992 50.8417 88.3944 51.7519 89.455 52.4318C89.7295 52.6041 89.9738 52.1629 89.7 51.991L89.7 51.991Z" fill="#CCCCCC"/>
<path d="M38.0193 10.3459C36.772 10.267 35.5611 9.89233 34.4858 9.25268C33.4106 8.61303 32.5016 7.72658 31.8333 6.66599C31.646 6.36533 31.4015 6.03492 31.5312 5.66484C31.5763 5.52294 31.6681 5.40062 31.7915 5.31788C31.9148 5.23514 32.0625 5.19688 32.2103 5.20934C32.3946 5.24918 32.5607 5.34881 32.6831 5.49287C32.8054 5.63692 32.8771 5.8174 32.8872 6.00646C32.8973 6.19552 32.8452 6.38266 32.7389 6.53901C32.6326 6.69537 32.478 6.81226 32.299 6.87165C31.4339 7.24223 30.5611 6.66952 29.8565 6.21246C28.2509 5.17099 26.4849 4.22913 24.5393 4.11044C22.7393 4.00065 20.809 4.70945 19.8078 6.27712C19.6326 6.55139 20.0675 6.80483 20.2418 6.53191C21.2348 4.97717 23.2421 4.41878 24.9875 4.65908C26.0276 4.82392 27.032 5.16635 27.957 5.67156C28.4368 5.92159 28.902 6.19875 29.3579 6.49011C29.7917 6.79409 30.2515 7.05881 30.7319 7.28114C31.5331 7.61166 32.5937 7.58584 33.1534 6.82486C33.2721 6.64454 33.3471 6.43882 33.3725 6.22416C33.3979 6.0095 33.3729 5.79185 33.2996 5.58861C33.2263 5.38537 33.1066 5.20218 32.9502 5.05368C32.7937 4.90519 32.6049 4.79551 32.3987 4.73341C32.2072 4.69548 32.0092 4.70589 31.8226 4.76369C31.6361 4.8215 31.4667 4.92489 31.3297 5.06461C31.1927 5.20433 31.0924 5.376 31.0377 5.56424C30.983 5.75248 30.9758 5.95141 31.0165 6.14318C31.1532 6.5711 31.3717 6.96814 31.6597 7.31208C32.3887 8.34202 33.3385 9.1946 34.4392 9.80701C35.5398 10.4194 36.7632 10.7761 38.0193 10.8507C38.3426 10.8667 38.3418 10.3619 38.0193 10.3459L38.0193 10.3459Z" fill="#CCCCCC"/>
<path d="M39.1601 26.3389H37.6624V31.2808H39.1601V26.3389Z" fill="#CCCCCC"/>
<path d="M14.9448 22.8901L15.9856 21.8448L12.5657 18.4103L11.5249 19.4556L14.9448 22.8901Z" fill="#B3B3B3"/>
<path d="M57.054 33.2757L58.0949 34.321L61.5148 30.8865L60.4739 29.8412L57.054 33.2757Z" fill="#B3B3B3"/>
<path d="M14.5202 75.9911L15.5611 77.0364L18.981 73.6019L17.9401 72.5566L14.5202 75.9911Z" fill="#FF6584"/>
</g>
<defs>
<clipPath id="clip0">
<rect width="89" height="145" fill="white" transform="translate(0.819763 0.597839)"/>
</clipPath>
</defs>
</svg>
